<svg width="41" height="32" viewBox="0 0 41 32" fill="none" xmlns="http://www.w3.org/2000/svg">
  <path fill-rule="evenodd" clip-rule="evenodd" d="M15.7017 13.1928L20.1649 23.0925L26.8096 19.2623L26.8145 19.2611V11.5946L15.7017 13.1928Z" fill="#2BBDF7" />
  <path fill-rule="evenodd" clip-rule="evenodd" d="M35.3934 5.84726L31.2469 4.2848L26.8145 3.92665V11.5913V11.5931V27.75H26.8157L33.4635 31.582L38.7115 20.8417L35.4026 10.4571L35.3934 5.84726Z" fill="#2891F9" />
  <path fill-rule="evenodd" clip-rule="evenodd" d="M35.0052 3.92899L33.4646 7.76037H33.4634V31.5807L40.1136 27.7487V3.92899H35.0052Z" fill="#2BBDF7" />
  <path fill-rule="evenodd" clip-rule="evenodd" d="M33.4635 0.0954468L26.8145 3.92868L33.4635 7.76191L40.1137 3.92868L33.4635 0.0954468Z" fill="#2B6DEF" />
  <path fill-rule="evenodd" clip-rule="evenodd" d="M20.1681 15.4236V15.4223L13.5191 7.98111L0.219238 3.92695V27.7479H0.220468L6.86826 31.5799L8.76745 18.3977L13.5191 19.2611V19.2568L20.1681 23.0888V15.4254L20.1688 15.4242L20.1681 15.4236Z" fill="#2891F9" />
  <path fill-rule="evenodd" clip-rule="evenodd" d="M6.869 0.0936623L0.21875 3.92689L20.1646 15.429L23.1788 13.6918L26.8142 11.5952L6.869 0.0936623Z" fill="#2B6DEF" />
  <path fill-rule="evenodd" clip-rule="evenodd" d="M6.86927 15.4248H6.86865V31.5786L13.5183 27.7466V19.2605V19.258L6.86927 15.4248Z" fill="#2BBDF7" />
</svg>