<?xml version="1.0" standalone="no"?>
<!DOCTYPE svg PUBLIC "-//W3C//DTD SVG 20010904//EN"
 "http://www.w3.org/TR/2001/REC-SVG-20010904/DTD/svg10.dtd">
<svg version="1.0" xmlns="http://www.w3.org/2000/svg"
 width="656.000000pt" height="656.000000pt" viewBox="0 0 656.000000 656.000000"
 preserveAspectRatio="xMidYMid meet">
<metadata>
Created by potrace 1.14, written by Peter Selinger 2001-2017
</metadata>
<g transform="translate(0.000000,656.000000) scale(0.100000,-0.100000)"
fill="#000000" stroke="none">
<path d="M1055 5799 c-22 -12 -77 -43 -123 -70 -45 -27 -85 -49 -89 -49 -4 0
-14 -6 -22 -14 -9 -7 -36 -25 -61 -38 -39 -22 -135 -77 -609 -350 -46 -26 -87
-48 -92 -48 -4 0 -11 -6 -16 -12 -4 -7 -8 -869 -8 -1916 l0 -1902 160 -92 c88
-50 193 -111 232 -135 40 -23 75 -43 78 -43 3 0 24 -12 48 -27 23 -15 62 -38
87 -51 70 -39 82 -46 127 -75 24 -15 45 -27 48 -27 3 0 35 -18 71 -40 36 -22
68 -40 70 -40 2 0 34 -18 71 -41 l67 -41 50 26 c28 15 65 36 81 46 17 11 36
23 44 27 13 6 219 123 251 142 27 17 333 193 398 230 35 20 71 41 80 46 10 6
51 29 92 52 l75 42 -1 676 c0 371 4 675 8 675 5 0 63 -31 129 -70 66 -38 124
-70 129 -70 6 0 10 -4 10 -9 0 -5 10 -13 23 -17 12 -4 46 -22 75 -40 29 -19
54 -34 56 -34 2 0 50 -27 105 -60 56 -33 106 -60 111 -60 6 0 10 -4 10 -10 0
-5 4 -10 9 -10 8 0 91 -47 306 -172 96 -56 85 -55 174 -4 44 25 84 46 90 46 5
0 11 4 13 8 2 4 50 34 108 66 58 32 107 61 110 65 3 3 28 17 55 31 28 13 52
27 55 30 5 5 184 109 285 165 55 31 110 63 140 83 11 6 39 22 63 34 23 12 42
26 42 31 0 4 4 5 10 2 7 -4 10 -242 10 -680 l0 -674 48 -27 c26 -15 126 -73
222 -129 96 -56 195 -113 220 -127 25 -14 163 -93 307 -177 144 -83 264 -151
266 -151 3 0 76 41 163 91 88 50 177 102 199 114 22 13 80 46 128 74 49 28 91
51 95 51 3 0 13 6 21 14 9 8 39 26 66 40 28 15 57 31 65 36 61 38 151 90 154
90 2 0 35 18 72 40 38 23 76 44 84 49 13 7 15 231 16 1912 l2 1904 -27 22
c-14 12 -30 22 -34 23 -7 0 -222 122 -267 151 -8 5 -27 15 -42 22 -16 6 -28
15 -28 19 0 4 -5 8 -11 8 -6 0 -23 8 -37 18 -15 11 -52 32 -82 49 -70 38 -161
90 -180 104 -8 5 -27 15 -42 22 -16 6 -28 15 -28 19 0 4 -4 8 -10 8 -5 0 -33
14 -62 31 -29 18 -78 46 -108 62 -30 17 -57 33 -60 37 -13 19 -52 20 -82 3
-18 -10 -35 -20 -38 -23 -3 -3 -23 -14 -45 -26 -22 -12 -83 -46 -135 -76 -331
-191 -590 -340 -690 -398 l-115 -66 -3 -612 c-1 -337 -6 -612 -10 -612 -4 0
-12 4 -17 9 -6 4 -35 22 -65 38 -30 17 -152 87 -270 155 -118 69 -228 133
-245 142 -16 9 -48 27 -70 40 -22 12 -110 63 -195 112 -85 48 -157 91 -160 94
-6 6 -84 49 -117 65 -13 5 -23 13 -23 18 0 4 -5 7 -10 7 -6 0 -47 21 -91 48
-109 64 -190 110 -214 122 -11 6 -38 22 -60 36 -22 13 -48 27 -57 31 -10 3
-18 9 -18 14 0 5 -4 9 -10 9 -5 0 -53 25 -107 57 -305 176 -372 214 -512 295
-84 48 -157 88 -161 88 -5 0 -10 4 -12 8 -1 5 -28 22 -58 39 -95 52 -150 83
-332 190 -98 57 -182 103 -188 103 -5 0 -10 5 -10 10 0 6 -5 10 -11 10 -6 0
-44 20 -83 45 -40 25 -77 45 -82 45 -5 0 -27 -10 -49 -21z"/>
</g>
</svg>
