<?xml version="1.0" standalone="no"?>
<!DOCTYPE svg PUBLIC "-//W3C//DTD SVG 20010904//EN"
 "http://www.w3.org/TR/2001/REC-SVG-20010904/DTD/svg10.dtd">
<svg version="1.0" xmlns="http://www.w3.org/2000/svg"
 width="500.000000pt" height="500.000000pt" viewBox="0 0 500.000000 500.000000"
 preserveAspectRatio="xMidYMid meet">
<metadata>
Created by potrace 1.11, written by Peter Selinger 2001-2013
</metadata>
<g transform="translate(0.000000,500.000000) scale(0.100000,-0.100000)"
fill="#000000" stroke="none">
<path d="M0 2500 l0 -2500 2500 0 2500 0 0 2500 0 2500 -2500 0 -2500 0 0
-2500z m3083 1269 c21 -5 51 -22 67 -37 l29 -27 -11 -77 c-7 -43 -16 -78 -20
-78 -4 0 -8 4 -8 9 0 22 -70 52 -112 49 -35 -2 -46 -9 -65 -36 -48 -72 -55
-225 -14 -317 11 -25 53 -80 94 -123 121 -127 157 -222 157 -417 0 -181 -39
-315 -111 -379 -68 -62 -156 -58 -231 12 l-40 37 10 74 c6 40 13 75 16 79 3 3
15 -7 27 -22 28 -36 70 -56 117 -56 84 0 128 100 120 266 -6 116 -27 162 -117
254 -105 107 -144 193 -157 351 -8 88 9 219 37 293 23 63 72 124 113 142 38
16 51 17 99 3z m-726 -611 c-4 -646 -7 -675 -64 -779 -42 -79 -105 -105 -177
-75 l-39 16 5 75 c5 80 11 96 30 77 19 -19 83 -15 102 7 10 11 25 41 34 68 14
42 17 123 20 626 l3 577 45 0 45 0 -4 -592z m1053 312 l0 -120 55 0 55 0 0
-75 0 -75 -55 0 -55 0 0 -335 c0 -385 3 -405 63 -405 40 0 47 -14 47 -91 0
-53 -12 -67 -64 -76 -31 -5 -40 -1 -70 29 -57 57 -59 75 -63 496 l-4 382 -35
0 -34 0 0 75 0 75 35 0 35 0 0 93 c0 92 0 92 32 119 55 46 58 41 58 -92z
m-709 -131 l32 -22 -7 -71 c-4 -38 -8 -72 -11 -74 -2 -3 -18 7 -35 22 -19 15
-44 26 -61 26 -26 0 -33 -6 -49 -42 -43 -94 -23 -171 70 -272 91 -101 105
-142 105 -301 0 -145 -18 -214 -69 -267 -59 -60 -126 -62 -190 -5 l-36 32 11
73 12 73 26 -24 c56 -52 96 -60 130 -23 21 22 42 109 35 145 -1 9 -6 33 -9 53
-4 27 -23 56 -72 109 -75 82 -97 126 -113 223 -17 111 12 267 62 326 46 55
109 62 169 19z m1172 -2 c45 -34 83 -108 109 -213 31 -122 33 -435 4 -559 -56
-240 -181 -339 -290 -231 -78 79 -116 216 -123 446 -9 296 45 493 157 568 43
29 96 25 143 -11z m462 -62 l0 -89 -33 -7 c-38 -8 -54 -26 -79 -89 -15 -39
-18 -95 -23 -410 l-5 -365 -42 -3 -43 -3 0 423 c0 233 -3 467 -7 521 l-6 97
41 0 42 0 1 -82 0 -83 24 65 c27 72 73 123 108 118 21 -3 22 -8 22 -93z m306
72 c75 -50 121 -212 123 -427 l1 -125 -157 -3 c-118 -2 -158 -6 -158 -15 0 -7
5 -51 11 -97 11 -92 43 -174 80 -208 33 -31 104 -30 152 2 l36 24 7 -66 c8
-76 2 -88 -52 -116 -53 -28 -133 -28 -171 0 -95 71 -143 238 -143 504 0 276
56 471 153 530 42 26 76 25 118 -3z m-2012 -1424 c6 -12 5 -20 -5 -28 -14 -10
-37 -104 -48 -200 l-6 -50 16 38 c9 21 22 36 28 34 14 -5 17 -118 4 -174 -13
-54 -33 -58 -25 -5 24 155 15 178 -19 45 -10 -40 -23 -73 -28 -73 -16 0 9 222
40 363 16 68 26 80 43 50z m235 -27 c-10 -8 -22 -53 -35 -125 -20 -118 -20
-149 1 -87 6 20 15 36 20 36 17 0 28 -69 13 -83 -3 -4 -13 -1 -21 6 -13 10
-14 6 -8 -33 11 -69 28 -119 41 -122 9 -2 10 -10 3 -27 -12 -34 -27 -16 -48
61 l-17 63 -7 -42 c-4 -24 -12 -43 -18 -43 -21 0 26 371 53 422 11 21 12 21
25 3 11 -15 11 -20 -2 -29z m899 6 c-19 -12 -31 -53 -47 -165 -19 -122 -20
-147 -6 -147 6 0 10 12 10 28 0 15 5 44 10 64 9 31 15 37 33 34 21 -3 22 -8
21 -87 -1 -90 -15 -132 -42 -127 -9 2 -22 19 -29 38 -10 30 -12 32 -13 10 0
-14 -4 -32 -10 -40 -8 -12 -10 -12 -16 3 -3 9 -4 29 0 45 3 18 -1 13 -14 -15
-33 -74 -56 -48 -39 44 15 80 39 135 55 129 8 -3 14 -4 14 -2 0 19 32 181 40
202 10 26 12 26 28 10 12 -12 14 -19 5 -24z m-1193 -57 c0 -18 -7 -26 -24 -31
-14 -3 -27 -12 -30 -19 -3 -8 -13 -77 -23 -155 -9 -77 -21 -140 -26 -140 -18
0 -19 36 -3 108 22 101 35 192 27 192 -4 0 -17 -7 -30 -16 -19 -13 -22 -24
-19 -55 2 -22 0 -39 -4 -39 -11 0 -20 43 -16 81 2 28 10 37 38 51 19 9 40 21
45 26 6 5 16 7 22 5 6 -2 14 1 18 6 11 19 25 12 25 -14z m674 -45 c-8 -41 -12
-50 -24 -50 -6 0 -7 21 -3 48 l6 47 -22 -19 c-25 -23 -27 -64 -6 -151 19 -78
19 -129 0 -166 -14 -25 -18 -28 -36 -18 -23 12 -58 82 -59 116 0 37 17 35 24
-2 4 -19 18 -47 31 -62 21 -26 24 -26 31 -10 4 10 -1 56 -10 102 -25 131 -22
168 17 204 29 28 33 30 45 14 7 -11 10 -30 6 -53z m110 64 c11 -4 16 -19 16
-53 0 -48 -25 -216 -36 -246 -6 -14 -3 -16 14 -11 18 6 21 4 15 -11 -5 -15 -4
-16 8 -5 7 6 21 60 31 120 20 118 45 212 56 212 4 0 15 -7 25 -14 16 -12 17
-23 11 -75 -8 -77 -24 -79 -25 -3 0 49 -2 53 -11 32 -5 -14 -20 -81 -32 -149
l-23 -123 38 5 c38 5 39 4 39 -24 0 -33 -3 -34 -50 -17 -29 9 -35 9 -46 -7
-13 -17 -14 -17 -23 6 -5 13 -10 19 -10 13 -1 -5 -20 -10 -42 -10 -34 1 -46 7
-62 28 -19 26 -20 33 -10 122 15 128 41 209 65 203 10 -3 21 -1 24 4 6 11 8
11 28 3z m920 -64 c-8 -41 -12 -50 -24 -50 -6 0 -7 21 -3 48 l6 47 -22 -19
c-25 -23 -27 -64 -6 -151 19 -78 19 -129 0 -166 -14 -25 -18 -28 -36 -18 -23
12 -58 82 -59 116 0 35 17 36 24 0 3 -17 17 -45 30 -62 22 -27 25 -28 32 -12
4 10 -1 56 -10 102 -25 131 -22 168 17 204 29 28 33 30 45 14 7 -11 10 -30 6
-53z m-154 35 c17 -21 7 -163 -20 -287 -23 -104 -34 -123 -56 -94 -18 25 -18
40 0 33 10 -4 18 4 25 26 25 82 50 317 34 317 -16 0 -38 -61 -38 -107 0 -52
-19 -51 -23 0 -4 43 30 127 51 127 8 0 20 -7 27 -15z m-1430 -49 c0 -16 -24
-38 -33 -30 -8 9 14 54 24 48 5 -3 9 -11 9 -18z m270 -16 c-8 -15 -15 -19 -22
-12 -7 7 -6 17 2 32 8 15 15 19 22 12 7 -7 6 -17 -2 -32z m933 3 c-3 -7 -11
-13 -19 -13 -17 0 -17 5 -3 32 8 16 13 18 19 8 5 -7 6 -19 3 -27z m-1224 -131
c-3 -76 -17 -142 -31 -142 -6 0 -7 17 -2 43 4 23 8 69 10 102 3 78 2 77 14 70
7 -4 10 -35 9 -73z m50 56 l8 -23 7 23 c24 75 45 -56 25 -150 -13 -57 -34 -66
-26 -10 3 20 8 62 11 92 l6 55 -25 -70 c-13 -38 -24 -78 -24 -87 -1 -27 -21
-22 -21 5 0 12 5 49 10 82 6 34 6 61 1 63 -11 4 -2 42 10 42 6 0 13 -10 18
-22z m227 -62 c-7 -89 -16 -136 -27 -136 -11 0 -11 18 1 100 5 35 5 67 1 70
-5 3 -5 15 0 28 17 45 31 12 25 -62z m48 67 c6 -14 8 -14 21 3 11 15 17 16 23
6 18 -27 -2 -216 -22 -209 -6 3 -10 10 -8 16 8 38 17 160 11 154 -4 -5 -16
-41 -26 -82 -11 -41 -25 -77 -32 -79 -11 -4 -12 2 -6 24 4 16 9 61 11 99 1 39
3 73 3 78 1 13 19 7 25 -10z m877 -92 c-5 -50 -13 -96 -16 -101 -9 -14 -25 -2
-19 13 11 30 20 147 11 150 -6 2 -5 12 2 26 24 44 33 9 22 -88z m49 82 l1 -28
15 28 c23 42 33 33 36 -35 3 -68 -12 -150 -28 -147 -5 0 -8 4 -7 8 1 3 4 40 7
81 6 74 6 75 -8 35 -8 -22 -20 -59 -26 -82 -14 -54 -35 -59 -25 -5 4 20 9 64
10 97 2 33 4 63 4 68 1 4 6 7 11 7 6 0 10 -12 10 -27z m-365 -165 c-9 -59 -15
-78 -25 -78 -10 0 -1 78 12 103 15 29 20 19 13 -25z"/>
<path d="M3740 3192 c-55 -55 -86 -225 -77 -417 11 -229 72 -363 151 -327 121
55 144 606 30 742 -33 38 -67 39 -104 2z"/>
<path d="M4537 3210 c-33 -26 -64 -110 -75 -200 l-8 -70 113 0 113 0 0 46 c0
78 -28 180 -60 214 -33 35 -48 37 -83 10z"/>
<path d="M3655 1638 c-21 -71 -18 -105 4 -43 31 85 33 95 22 95 -6 0 -17 -23
-26 -52z"/>
<path d="M3756 1668 c-17 -28 -30 -135 -17 -143 5 -3 13 5 17 17 7 24 22 148
17 148 -1 0 -9 -10 -17 -22z"/>
<path d="M3325 1801 c-31 -71 -47 -59 -18 15 4 11 3 15 -5 11 -28 -18 -59
-264 -36 -287 7 -7 9 -1 6 20 -5 33 4 39 23 14 10 -15 13 -11 23 27 14 58 35
215 30 230 -2 6 -12 -7 -23 -30z"/>
</g>
</svg>
